#!OML:ASF H:\Dans Jumps\Project 1\Capture day 1\Session 1\subject.ASF
:FULLY-SPECIFIED
:DEGREES
286
root 0.375465 16.8215 -3.17332 8.74073 -5.99498 -0.454944
lowerback 7.55249 -1.62592 -1.23312
upperback 5.57648 -2.25043 2.32244
thorax 1.67925 -1.21001 3.22133
lowerneck -12.095 2.25299 0.197893
upperneck 32.9432 3.71263 -1.84354
head 13.0668 1.37249 -0.224054
rclavicle 1.19271e-015 4.77083e-015
rhumerus -23.1903 -22.6404 -76.9191
rradius 17.7638
rwrist 44.6699
rhand -24.877 -26.2087
rfingers 7.12502
rthumb 1.63032 -56.1822
lclavicle 1.19271e-015 4.77083e-015
lhumerus -1.14477 0.355971 89.5926
lradius 19.9518
lwrist 13.1007
lhand -29.9922 -9.55864
lfingers 7.12502
lthumb -3.30994 20.3954
rfemur -34.2793 -0.921462 19.6232
rtibia 48.0287
rfoot -20.0774 -5.83451
rtoes 4.42079
lfemur -33.2991 8.61081 -18.4578
ltibia 44.4102
lfoot -17.9748 2.48984
ltoes -2.1902
287
root 0.371915 16.8239 -3.1573 8.72727 -5.88118 -0.461487
lowerback 7.50481 -1.60799 -1.26964
upperback 5.58306 -2.22854 2.31688
thorax 1.71223 -1.20038 3.23317
lowerneck -12.1406 2.22839 0.202361
upperneck 32.9924 3.66143 -1.79062
head 13.0956 1.35682 -0.210985
rclavicle -1.42131e-014 1.39149e-014
rhumerus -23.0735 -22.2842 -77.1543
rradius 17.8545
rwrist 44.4253
rhand -24.8893 -26.0999
rfingers 7.12502
rthumb 1.61845 -56.0735
lclavicle -1.42131e-014 1.39149e-014
lhumerus -1.24861 0.192094 89.7672
lradius 19.9267
lwrist 13.104
lhand -29.8523 -9.28031
lfingers 7.12502
lthumb -3.17482 20.6758
rfemur -34.1671 -1.02391 19.6511
rtibia 48.0013
rfoot -20.1089 -5.85883
rtoes 4.47322
lfemur -33.2159 8.61012 -18.4396
ltibia 44.371
lfoot -18.0199 2.40092
ltoes -2.24454
288
root 0.368195 16.8256 -3.1416 8.71651 -5.76171 -0.47163
lowerback 7.45395 -1.59222 -1.3039
upperback 5.58891 -2.20934 2.31288
thorax 1.74635 -1.19206 3.24542
lowerneck -12.1818 2.20546 0.204764
upperneck 33.0375 3.61232 -1.73577
head 13.1217 1.34221 -0.196547
rclavicle 1.65985e-014 -8.34896e-015
rhumerus -22.9408 -21.9613 -77.3818
rradius 17.9425
rwrist 44.2115
rhand -24.8986 -25.9657
rfingers 7.12502
rthumb 1.6095 -55.9393
lclavicle 1.65985e-014 -8.34896e-015
lhumerus -1.36314 -0.00563021 89.9264
lradius 19.9033
lwrist 13.1182
lhand -29.716 -8.92944
lfingers 7.12502
lthumb -3.04316 21.0286
rfemur -34.0616 -1.12007 19.682
rtibia 47.9808
rfoot -20.1364 -5.89438
rtoes 4.52153
lfemur -33.1452 8.61071 -18.4188
ltibia 44.3452
lfoot -18.0681 2.31554
ltoes -2.33202
289
root 0.364348 16.8268 -3.12612 8.7091 -5.63325 -0.489916
lowerback 7.39969 -1.57926 -1.33054
upperback 5.59171 -2.19339 2.313
thorax 1.77925 -1.18518 3.2578
lowerneck -12.2127 2.18233 0.20224
upperneck 33.0805 3.56316 -1.67856
head 13.1445 1.32743 -0.180464
rclavicle 8.05078e-015 -3.4191e-014
rhumerus -22.8019 -21.6097 -77.6147
rradius 18.0478
rwrist 43.9606
rhand -24.9028 -25.8438
rfingers 7.12502
rthumb 1.60548 -55.8175
lclavicle 8.05078e-015 -3.4191e-014
lhumerus -1.50179 -0.254277 90.0736
lradius 19.8546
lwrist 13.051
lhand -29.6823 -8.78491
lfingers 7.12502
lthumb -3.01067 21.1736
rfemur -33.9618 -1.21227 19.7212
rtibia 47.9662
rfoot -20.1631 -5.93873
rtoes 4.57584
lfemur -33.0875 8.60815 -18.3898
ltibia 44.3331
lfoot -18.1199 2.23481
ltoes -2.43912
290
root 0.360395 16.8273 -3.11104 8.70687 -5.49193 -0.517836
lowerback 7.34386 -1.57022 -1.34787
upperback 5.59032 -2.18207 2.3193
thorax 1.80886 -1.18037 3.27165
lowerneck -12.2378 2.15999 0.199459
upperneck 33.1241 3.51723 -1.62758
head 13.1666 1.3133 -0.16635
rclavicle 2.03754e-014 1.98785e-015
rhumerus -22.6568 -21.2445 -77.846
rradius 18.1661
rwrist 43.6884
rhand -24.9065 -25.7446
rfingers 7.12502
rthumb 1.60188 -55.7183
lclavicle 2.03754e-014 1.98785e-015
lhumerus -1.6647 -0.542175 90.2125
lradius 19.7939
lwrist 12.9398
lhand -29.6914 -8.71923
lfingers 7.12502
lthumb -3.01946 21.2391
rfemur -33.8706 -1.3042 19.7707
rtibia 47.9586
rfoot -20.1894 -5.99181
rtoes 4.62552
lfemur -33.0472 8.59793 -18.3505
ltibia 44.3367
lfoot -18.1742 2.15936
ltoes -2.56624
291
root 0.356406 16.8271 -3.09631 8.7057 -5.33923 -0.557334
lowerback 7.28877 -1.56566 -1.35344
upperback 5.58576 -2.17606 2.33195
thorax 1.8349 -1.17791 3.28584
lowerneck -12.2532 2.13876 0.199425
upperneck 33.166 3.47548 -1.5871
head 13.1864 1.30011 -0.156317
rclavicle -1.19271e-014 -1.51076e-014
rhumerus -22.505 -20.9129 -78.0621
rradius 18.2788
rwrist 43.4425
rhand -24.916 -25.6602
rfingers 7.12502
rthumb 1.5927 -55.634
lclavicle -1.19271e-014 -1.51076e-014
lhumerus -1.86057 -0.857512 90.344
lradius 19.7149
lwrist 12.713
lhand -29.7822 -8.84281
lfingers 7.12502
lthumb -3.10709 21.1143
rfemur -33.7836 -1.39541 19.8326
rtibia 47.958
rfoot -20.2177 -6.05242
rtoes 4.66605
lfemur -33.0192 8.5799 -18.2979
ltibia 44.3559
lfoot -18.2317 2.09084
ltoes -2.70364
